<svg width="7" height="15" fill="none" xmlns="http://www.w3.org/2000/svg"><path d="M5.363 14H3.922V3.11c-.111.112-.276.24-.492.387-.211.14-.451.281-.721.422-.264.14-.545.272-.844.395a5.96 5.96 0 01-.861.29V3.146c.316-.088.65-.206 1.002-.352.357-.152.706-.32 1.046-.501.345-.188.67-.38.975-.58.305-.205.569-.404.791-.598h.545V14z" fill="#fff"/><path d="M5.363 14v1h1v-1h-1zm-1.441 0h-1v1h1v-1zm0-10.89h1V.696L3.215 2.403l.707.707zm-.492.387l.554.832.006-.003-.56-.829zm-.721.422l-.463-.887-.008.005.471.882zm-.844.395l-.38-.924-.007.002.387.922zm-.861.29h-1v1.281l1.242-.31-.242-.97zm0-1.458l-.268-.964-.732.203v.76h1zm1.002-.352l.384.923.008-.003-.392-.92zm1.046-.501l.471.882.006-.003-.477-.879zm.975-.58l.548.837.01-.008-.558-.83zm.791-.598v-1h-.373L4.163.36l.655.755zm.545 0h1v-1h-1v1zm0 11.885H3.922v2h1.441v-2zm-.441 1V3.11h-2V14h2zM3.215 2.403a2.536 2.536 0 01-.345.265l1.12 1.658c.24-.162.463-.332.639-.509L3.215 2.403zm-.34.262c-.176.117-.385.24-.629.367l.926 1.774c.295-.154.567-.313.812-.477L2.875 2.665zm-.637.372a8.391 8.391 0 01-.754.353l.762 1.85c.327-.136.638-.281.934-.439l-.942-1.764zm-.76.355c-.25.106-.49.185-.717.242l.485 1.94c.336-.083.671-.197 1.006-.338l-.774-1.844zm.526 1.212V3.146h-2v1.458h2zm-.732-.495c.361-.1.735-.232 1.118-.392l-.769-1.846c-.32.133-.614.236-.885.311l.536 1.927zm1.126-.395c.384-.164.76-.344 1.125-.54L2.58 1.412c-.313.168-.636.322-.966.463l.784 1.84zm1.13-.542c.368-.2.717-.407 1.047-.622L3.48.876c-.28.183-.581.362-.905.538l.954 1.758zm1.058-.63c.33-.222.628-.446.888-.672L4.163.36a7.163 7.163 0 01-.694.523l1.117 1.66zm.232-.427h.545v-2h-.545v2zm-.455-1V14h2V1.115h-2z" fill="#fff"/></svg>